<svg width="16" height="16" viewBox="0 0 16 16" fill="none" xmlns="http://www.w3.org/2000/svg">
<g clip-path="url(#clip0)">
<path d="M15.999 8.04854C15.999 3.60254 12.417 -0.00146484 7.99901 -0.00146484C3.57901 -0.000464843 -0.00299072 3.60254 -0.00299072 8.04954C-0.00299072 12.0665 2.92301 15.3965 6.74701 16.0005V10.3755H4.71701V8.04954H6.74901V6.27454C6.74901 4.25754 7.94401 3.14354 9.77101 3.14354C10.647 3.14354 11.562 3.30054 11.562 3.30054V5.28054H10.553C9.56001 5.28054 9.25001 5.90154 9.25001 6.53854V8.04854H11.468L11.114 10.3745H9.24901V15.9995C13.073 15.3955 15.999 12.0655 15.999 8.04854Z" fill="#F9F9F9"/>
</g>
<defs>
<clipPath id="clip0">
<rect width="16" height="16" fill="white"/>
</clipPath>
</defs>
</svg>
