<svg width="16" height="16" viewBox="0 0 16 16" fill="none" xmlns="http://www.w3.org/2000/svg">
<path fill-rule="evenodd" clip-rule="evenodd" d="M4.97669 0.710504C5.75869 0.674504 6.00802 0.666504 8.00002 0.666504C9.99202 0.666504 10.2414 0.675171 11.0227 0.710504C11.804 0.745837 12.3374 0.870504 12.804 1.05117C13.2927 1.23584 13.736 1.5245 14.1027 1.89784C14.476 2.26384 14.764 2.7065 14.948 3.19584C15.1294 3.6625 15.2534 4.19584 15.2894 4.97584C15.3254 5.75917 15.3334 6.0085 15.3334 7.99984C15.3334 9.99184 15.3247 10.2412 15.2894 11.0232C15.254 11.8032 15.1294 12.3365 14.948 12.8032C14.764 13.2926 14.4755 13.736 14.1027 14.1025C13.736 14.4758 13.2927 14.7638 12.804 14.9478C12.3374 15.1292 11.804 15.2532 11.024 15.2892C10.2414 15.3252 9.99202 15.3332 8.00002 15.3332C6.00802 15.3332 5.75869 15.3245 4.97669 15.2892C4.19669 15.2538 3.66335 15.1292 3.19669 14.9478C2.7073 14.7638 2.2639 14.4753 1.89735 14.1025C1.52427 13.7363 1.23556 13.2931 1.05135 12.8038C0.870687 12.3372 0.746687 11.8038 0.710687 11.0238C0.674687 10.2405 0.666687 9.99117 0.666687 7.99984C0.666687 6.00784 0.675354 5.7585 0.710687 4.97717C0.74602 4.19584 0.870687 3.6625 1.05135 3.19584C1.23584 2.70656 1.52477 2.26338 1.89802 1.89717C2.26405 1.52417 2.707 1.23547 3.19602 1.05117C3.66269 0.870504 4.19602 0.746504 4.97602 0.710504H4.97669ZM10.9634 2.0305C10.19 1.99517 9.95802 1.98784 8.00002 1.98784C6.04202 1.98784 5.81002 1.99517 5.03669 2.0305C4.32135 2.06317 3.93335 2.1825 3.67469 2.28317C3.33269 2.4165 3.08802 2.5745 2.83135 2.83117C2.58805 3.06787 2.40081 3.35603 2.28335 3.6745C2.18269 3.93317 2.06335 4.32117 2.03069 5.0365C1.99535 5.80984 1.98802 6.04184 1.98802 7.99984C1.98802 9.95784 1.99535 10.1898 2.03069 10.9632C2.06335 11.6785 2.18269 12.0665 2.28335 12.3252C2.40069 12.6432 2.58802 12.9318 2.83135 13.1685C3.06802 13.4118 3.35669 13.5992 3.67469 13.7165C3.93335 13.8172 4.32135 13.9365 5.03669 13.9692C5.81002 14.0045 6.04135 14.0118 8.00002 14.0118C9.95869 14.0118 10.19 14.0045 10.9634 13.9692C11.6787 13.9365 12.0667 13.8172 12.3254 13.7165C12.6674 13.5832 12.912 13.4252 13.1687 13.1685C13.412 12.9318 13.5994 12.6432 13.7167 12.3252C13.8174 12.0665 13.9367 11.6785 13.9694 10.9632C14.0047 10.1898 14.012 9.95784 14.012 7.99984C14.012 6.04184 14.0047 5.80984 13.9694 5.0365C13.9367 4.32117 13.8174 3.93317 13.7167 3.6745C13.5834 3.3325 13.4254 3.08784 13.1687 2.83117C12.932 2.58788 12.6438 2.40064 12.3254 2.28317C12.0667 2.1825 11.6787 2.06317 10.9634 2.0305ZM7.06335 10.2605C7.58646 10.4783 8.16894 10.5076 8.71131 10.3437C9.25367 10.1797 9.72228 9.83245 10.0371 9.36133C10.3519 8.89022 10.4934 8.32442 10.4374 7.76057C10.3814 7.19673 10.1314 6.66982 9.73002 6.26984C9.47418 6.01415 9.16483 5.81838 8.82424 5.6966C8.48366 5.57482 8.12031 5.53008 7.76035 5.56558C7.40039 5.60108 7.05279 5.71595 6.74256 5.90192C6.43232 6.08789 6.16718 6.34033 5.96622 6.64107C5.76526 6.94181 5.63348 7.28336 5.58036 7.64114C5.52725 7.99893 5.55412 8.36403 5.65905 8.71018C5.76397 9.05633 5.94434 9.37491 6.18717 9.64298C6.42999 9.91106 6.72924 10.122 7.06335 10.2605ZM5.33469 5.3345C5.6847 4.98449 6.10023 4.70684 6.55755 4.51741C7.01487 4.32798 7.50502 4.23049 8.00002 4.23049C8.49502 4.23049 8.98517 4.32798 9.44249 4.51741C9.89981 4.70684 10.3153 4.98449 10.6654 5.3345C11.0154 5.68452 11.293 6.10005 11.4824 6.55737C11.6719 7.01469 11.7694 7.50484 11.7694 7.99984C11.7694 8.49483 11.6719 8.98499 11.4824 9.4423C11.293 9.89962 11.0154 10.3152 10.6654 10.6652C9.95846 11.3721 8.99971 11.7692 8.00002 11.7692C7.00033 11.7692 6.04158 11.3721 5.33469 10.6652C4.6278 9.95828 4.23067 8.99953 4.23067 7.99984C4.23067 7.00014 4.6278 6.04139 5.33469 5.3345ZM12.6054 4.79184C12.6921 4.71002 12.7615 4.61162 12.8096 4.50249C12.8576 4.39335 12.8832 4.27568 12.885 4.15646C12.8867 4.03723 12.8645 3.91887 12.8197 3.80838C12.7748 3.69789 12.7083 3.59751 12.624 3.5132C12.5397 3.42888 12.4393 3.36234 12.3288 3.31752C12.2183 3.27269 12.1 3.25049 11.9807 3.25223C11.8615 3.25396 11.7438 3.27961 11.6347 3.32763C11.5256 3.37566 11.4272 3.4451 11.3454 3.53184C11.1862 3.70052 11.0991 3.92458 11.1025 4.15646C11.1059 4.38833 11.1995 4.60976 11.3635 4.77373C11.5274 4.93771 11.7489 5.03132 11.9807 5.0347C12.2126 5.03808 12.4367 4.95096 12.6054 4.79184Z" fill="#F9F9F9"/>
</svg>
