<svg width="16" height="16" viewBox="0 0 16 16" fill="none" xmlns="http://www.w3.org/2000/svg">
<path fill-rule="evenodd" clip-rule="evenodd" d="M0.666687 1.89184C0.666687 1.56686 0.795784 1.25519 1.02558 1.0254C1.25537 0.795603 1.56704 0.666506 1.89202 0.666506H14.1067C14.2677 0.666243 14.4273 0.697747 14.5761 0.759217C14.725 0.820686 14.8602 0.910912 14.9742 1.02473C15.0881 1.13855 15.1785 1.27372 15.2401 1.42251C15.3018 1.5713 15.3334 1.73079 15.3334 1.89184V14.1065C15.3335 14.2676 15.3019 14.4271 15.2404 14.576C15.1789 14.7248 15.0886 14.8601 14.9747 14.974C14.8608 15.088 14.7256 15.1783 14.5768 15.24C14.428 15.3016 14.2684 15.3333 14.1074 15.3332H1.89202C1.73105 15.3332 1.57166 15.3015 1.42295 15.2398C1.27424 15.1782 1.13913 15.0879 1.02534 14.974C0.911552 14.8602 0.821308 14.725 0.759769 14.5763C0.698229 14.4275 0.6666 14.2681 0.666687 14.1072V1.89184ZM6.47202 6.25851H8.45802V7.25584C8.74469 6.68251 9.47802 6.16651 10.58 6.16651C12.6927 6.16651 13.1934 7.30851 13.1934 9.40384V13.2852H11.0554V9.88117C11.0554 8.68784 10.7687 8.01451 10.0407 8.01451C9.03069 8.01451 8.61069 8.74051 8.61069 9.88117V13.2852H6.47202V6.25851ZM2.80535 13.1938H4.94402V6.16651H2.80535V13.1932V13.1938ZM5.25002 3.87451C5.25405 4.05762 5.22147 4.2397 5.15418 4.41005C5.08689 4.5804 4.98625 4.7356 4.85817 4.86653C4.73009 4.99746 4.57715 5.10149 4.40832 5.17251C4.23949 5.24353 4.05818 5.28012 3.87502 5.28012C3.69186 5.28012 3.51055 5.24353 3.34172 5.17251C3.17289 5.10149 3.01995 4.99746 2.89187 4.86653C2.76379 4.7356 2.66315 4.5804 2.59586 4.41005C2.52857 4.2397 2.49599 4.05762 2.50002 3.87451C2.50794 3.51507 2.65628 3.17303 2.91328 2.92163C3.17028 2.67023 3.5155 2.52945 3.87502 2.52945C4.23454 2.52945 4.57976 2.67023 4.83676 2.92163C5.09376 3.17303 5.24211 3.51507 5.25002 3.87451Z" fill="#F9F9F9"/>
</svg>
