<svg width="16" height="16" viewBox="0 0 16 16" fill="none" xmlns="http://www.w3.org/2000/svg">
<path d="M7.99999 0.666504C6.05507 0.666504 4.18981 1.43912 2.81454 2.81439C1.43927 4.18965 0.666656 6.05492 0.666656 7.99984C0.666656 9.94476 1.43927 11.81 2.81454 13.1853C4.18981 14.5606 6.05507 15.3332 7.99999 15.3332C9.94491 15.3332 11.8102 14.5606 13.1854 13.1853C14.5607 11.81 15.3333 9.94476 15.3333 7.99984C15.3333 6.05492 14.5607 4.18965 13.1854 2.81439C11.8102 1.43912 9.94491 0.666504 7.99999 0.666504V0.666504ZM1.5711 8.55391H3.61629C3.64888 9.29539 3.75236 10.032 3.92592 10.7539H2.16592C1.83771 10.062 1.63625 9.31691 1.5711 8.55391ZM8.55406 4.15391V1.63613C9.33929 1.93454 9.98452 2.51583 10.363 3.26576C10.53 3.5485 10.6775 3.84265 10.803 4.14576L8.55406 4.15391ZM11.1778 5.25391C11.3668 5.97339 11.4792 6.7108 11.5118 7.45391H8.55406V5.25391H11.1778ZM7.44592 1.63613V4.15391H5.19703C5.32272 3.85055 5.46976 3.55648 5.63703 3.27391C6.01385 2.5209 6.65929 1.93652 7.44592 1.63613ZM7.44592 5.25391V7.45391H4.49629C4.52888 6.7108 4.64132 5.97339 4.83036 5.25391H7.44592ZM3.61629 7.44576H1.5711C1.63625 6.68277 1.83771 5.93764 2.16592 5.24576H3.92592C3.75203 5.9674 3.64833 6.70416 3.61629 7.44576ZM4.49629 8.55391H7.44592V10.7539H4.83036C4.64135 10.0345 4.52937 9.29701 4.49629 8.55391ZM7.45406 11.8132V14.3309C6.66884 14.0325 6.02361 13.4513 5.64517 12.7013C5.4779 12.4187 5.33087 12.1247 5.20517 11.8213L7.45406 11.8132ZM8.55406 14.3309V11.8539H10.803C10.6773 12.1573 10.5302 12.4513 10.363 12.7339C9.98452 13.4838 9.33929 14.0651 8.55406 14.3635V14.3309ZM8.55406 10.7132V8.51317H11.5037C11.4706 9.25627 11.3586 9.99375 11.1696 10.7132H8.55406ZM12.3918 8.51317H14.437C14.3719 9.27617 14.1704 10.0213 13.8422 10.7132H12.0741C12.2452 10.0043 12.3487 9.28154 12.3837 8.55391L12.3918 8.51317ZM12.3918 7.41317C12.3545 6.68498 12.2481 5.96198 12.0741 5.25391H13.8341C14.1624 5.9465 14.3637 6.69124 14.4289 7.45391L12.3918 7.41317ZM13.2067 4.15391H11.7481C11.4842 3.41267 11.1017 2.71921 10.6155 2.10058C11.6295 2.55572 12.5102 3.26255 13.1741 4.15391H13.2067ZM5.38443 2.10058C4.89825 2.71921 4.51574 3.41267 4.25184 4.15391H2.82592C3.48976 3.26255 4.37049 2.55572 5.38443 2.10058ZM2.81777 11.8784H4.25184C4.51574 12.6196 4.89825 13.3131 5.38443 13.9317C4.36769 13.4697 3.48669 12.7542 2.82592 11.8539L2.81777 11.8784ZM10.6074 13.9317C11.0936 13.3131 11.4761 12.6196 11.74 11.8784H13.1741C12.5062 12.7578 11.6258 13.4531 10.6155 13.8991L10.6074 13.9317Z" fill="#F9F9F9"/>
</svg>
